<svg width="20" height="20" viewBox="0 0 20 20" fill="none" xmlns="http://www.w3.org/2000/svg">
<path d="M14.1666 4.13329V10.0666C14.1666 11.725 12.9916 12.3666 11.55 11.5L10.45 10.8333C10.2 10.6833 9.79998 10.6833 9.54998 10.8333L8.44998 11.5C7.00831 12.3666 5.83331 11.725 5.83331 10.0666V4.15829C5.84165 2.49996 6.67498 1.66663 8.33331 1.66663H11.6666C13.3166 1.66663 14.15 2.49163 14.1666 4.13329Z" fill="#8E98A8"/>
<path d="M18.3334 9.91671V12.4417C18.3334 16.65 16.6667 18.3334 12.5 18.3334H7.50002C3.33335 18.3334 1.66669 16.65 1.66669 12.4417V9.91671C1.66669 7.67504 2.14169 6.15004 3.20835 5.21671C3.75002 4.75838 4.58335 5.15838 4.58335 5.86671V10.0667C4.58335 11.3084 5.09169 12.3084 5.97502 12.8084C6.86669 13.3167 8.00002 13.225 9.10002 12.5667L10 12.025L10.9084 12.5667C11.525 12.9417 12.1667 13.1334 12.7667 13.1334C13.2167 13.1334 13.6417 13.025 14.025 12.8084C14.9084 12.3084 15.4167 11.3084 15.4167 10.0667V5.85838C15.4167 5.15004 16.2584 4.75004 16.7917 5.21671C17.8584 6.15004 18.3334 7.67504 18.3334 9.91671Z" fill="#8E98A8"/>
</svg>
