<svg width="20" height="20" viewBox="0 0 20 20" fill="none" xmlns="http://www.w3.org/2000/svg">
<path d="M7.5 12.5C7.5 10.143 7.5 8.9645 8.23223 8.23223C8.9645 7.5 10.143 7.5 12.5 7.5H13.3333C15.6903 7.5 16.8688 7.5 17.6011 8.23223C18.3333 8.9645 18.3333 10.143 18.3333 12.5V13.3333C18.3333 15.6903 18.3333 16.8688 17.6011 17.6011C16.8688 18.3333 15.6903 18.3333 13.3333 18.3333H12.5C10.143 18.3333 8.9645 18.3333 8.23223 17.6011C7.5 16.8688 7.5 15.6903 7.5 13.3333V12.5Z" stroke="#8E98A8" stroke-width="1.25" stroke-linecap="round" stroke-linejoin="round"/>
<path d="M14.164 7.49984C14.162 5.0356 14.1247 3.75918 13.4074 2.8852C13.2689 2.71641 13.1141 2.56165 12.9454 2.42314C12.0234 1.6665 10.6536 1.6665 7.91406 1.6665C5.1745 1.6665 3.80471 1.6665 2.88275 2.42314C2.71397 2.56165 2.55921 2.71641 2.4207 2.8852C1.66406 3.80715 1.66406 5.17694 1.66406 7.9165C1.66406 10.6561 1.66406 12.0258 2.4207 12.9478C2.5592 13.1166 2.71397 13.2713 2.88275 13.4098C3.75674 14.1272 5.03315 14.1644 7.4974 14.1664" stroke="#8E98A8" stroke-width="1.25" stroke-linecap="round" stroke-linejoin="round"/>
</svg>
