<svg width="16" height="17" viewBox="0 0 16 17" fill="none" xmlns="http://www.w3.org/2000/svg">
<path d="M8.66602 1.83337H8.84782C11.0219 1.83337 12.109 1.83337 12.8639 2.36527C13.0803 2.51766 13.2723 2.69839 13.4342 2.90197C13.9993 3.61249 13.9993 4.63561 13.9993 6.68186V8.37884C13.9993 10.3543 13.9993 11.342 13.6867 12.1308C13.1841 13.3991 12.1213 14.3994 10.7737 14.8724C9.93562 15.1667 8.88615 15.1667 6.78722 15.1667C5.58785 15.1667 4.98816 15.1667 4.5092 14.9986C3.73921 14.7283 3.13185 14.1566 2.84466 13.432C2.66602 12.9812 2.66602 12.4168 2.66602 11.2879V8.50004" stroke="#5C5C5C" stroke-linecap="round" stroke-linejoin="round"/>
<path d="M14.0007 8.5C14.0007 9.72727 13.0057 10.7222 11.7785 10.7222C11.3346 10.7222 10.8113 10.6445 10.3797 10.7601C9.99632 10.8628 9.69678 11.1623 9.59405 11.5457C9.47845 11.9773 9.55618 12.5006 9.55618 12.9445C9.55618 14.1717 8.56125 15.1667 7.33398 15.1667" stroke="#5C5C5C" stroke-linecap="round" stroke-linejoin="round"/>
<path d="M7.33333 4.50004H2M4.66667 1.83337V7.16671" stroke="#5C5C5C" stroke-linecap="round"/>
</svg>
