<svg width="16" height="16" viewBox="0 0 16 16" fill="none" xmlns="http://www.w3.org/2000/svg">
<path opacity="0.34" d="M3.33398 6.66683H4.66732C6.00065 6.66683 6.66732 6.00016 6.66732 4.66683V3.3335C6.66732 2.00016 6.00065 1.3335 4.66732 1.3335H3.33398C2.00065 1.3335 1.33398 2.00016 1.33398 3.3335V4.66683C1.33398 6.00016 2.00065 6.66683 3.33398 6.66683Z" stroke="#292D32" stroke-miterlimit="10" stroke-linecap="round" stroke-linejoin="round"/>
<path d="M11.334 6.66683H12.6673C14.0007 6.66683 14.6673 6.00016 14.6673 4.66683V3.3335C14.6673 2.00016 14.0007 1.3335 12.6673 1.3335H11.334C10.0007 1.3335 9.33398 2.00016 9.33398 3.3335V4.66683C9.33398 6.00016 10.0007 6.66683 11.334 6.66683Z" stroke="#292D32" stroke-miterlimit="10" stroke-linecap="round" stroke-linejoin="round"/>
<path opacity="0.34" d="M11.334 14.6668H12.6673C14.0007 14.6668 14.6673 14.0002 14.6673 12.6668V11.3335C14.6673 10.0002 14.0007 9.3335 12.6673 9.3335H11.334C10.0007 9.3335 9.33398 10.0002 9.33398 11.3335V12.6668C9.33398 14.0002 10.0007 14.6668 11.334 14.6668Z" stroke="#292D32" stroke-miterlimit="10" stroke-linecap="round" stroke-linejoin="round"/>
<path d="M3.33398 14.6668H4.66732C6.00065 14.6668 6.66732 14.0002 6.66732 12.6668V11.3335C6.66732 10.0002 6.00065 9.3335 4.66732 9.3335H3.33398C2.00065 9.3335 1.33398 10.0002 1.33398 11.3335V12.6668C1.33398 14.0002 2.00065 14.6668 3.33398 14.6668Z" stroke="#292D32" stroke-miterlimit="10" stroke-linecap="round" stroke-linejoin="round"/>
</svg>
