<svg width="20" height="20" viewBox="0 0 20 20" fill="none" xmlns="http://www.w3.org/2000/svg">
<path d="M15.9333 12.45L16.2 12.9916C16.3333 13.2583 16.675 13.5083 16.9583 13.5583L17.3167 13.6166C18.4083 13.8 18.6583 14.6 17.8833 15.3833L17.55 15.7166C17.325 15.9416 17.2083 16.375 17.275 16.6916L17.3167 16.8916C17.6167 18.2083 16.9167 18.7166 15.775 18.025L15.5333 17.875C15.2417 17.7 14.7583 17.7 14.4667 17.875L14.225 18.025C13.075 18.7166 12.3833 18.2083 12.6833 16.8916L12.725 16.6916C12.7917 16.3833 12.675 15.9416 12.45 15.7166L12.1167 15.3833C11.3417 14.5916 11.5917 13.8 12.6833 13.6166L13.0417 13.5583C13.3333 13.5083 13.6667 13.2583 13.8 12.9916L14.0667 12.45C14.5833 11.4083 15.4167 11.4083 15.9333 12.45Z" fill="#8E98A8"/>
<path d="M13.4917 1.66663H6.50841C3.47508 1.66663 1.66675 3.47496 1.66675 6.50829V13.4916C1.66675 16.525 3.47508 18.3333 6.50841 18.3333H10.9084C11.2001 18.3333 11.4084 18.0333 11.3751 17.7416C11.3417 17.425 11.3584 17.05 11.4584 16.6166C11.4751 16.5583 11.4584 16.4916 11.4084 16.4416L11.2251 16.2583C10.5167 15.5416 10.2584 14.675 10.5084 13.8833C10.7667 13.1 11.4834 12.55 12.4751 12.3833L12.7251 12.3416L12.9501 11.8916C13.4084 10.9583 14.1584 10.4166 15.0001 10.4166C15.8417 10.4166 16.5917 10.9583 17.0501 11.8916L17.1751 12.15C17.2334 12.275 17.3501 12.3583 17.4834 12.3833C17.5584 12.4 17.6334 12.4166 17.7084 12.4333C18.0001 12.5083 18.3334 12.275 18.3334 11.9666V6.50829C18.3334 3.47496 16.5251 1.66663 13.4917 1.66663ZM13.5501 7.46663L11.6251 9.94996C11.3834 10.2583 11.0417 10.4583 10.6501 10.5C10.2667 10.55 9.87508 10.4416 9.57508 10.2L8.05008 9.01663C7.99175 8.96663 7.92508 8.96663 7.89175 8.97496C7.85842 8.97496 7.80008 8.99163 7.75008 9.05829L5.76675 11.6333C5.64175 11.7916 5.45842 11.875 5.26675 11.875C5.13341 11.875 5.00008 11.8333 4.88341 11.7416C4.60841 11.5333 4.55841 11.1416 4.76675 10.8666L6.75008 8.29163C6.99175 7.98329 7.33342 7.78329 7.72508 7.73329C8.11675 7.68329 8.50008 7.79163 8.80841 8.03329L10.3334 9.23329C10.3917 9.28329 10.4501 9.27496 10.4917 9.27496C10.5251 9.27496 10.5834 9.25829 10.6334 9.19163L12.5584 6.70829C12.7667 6.43329 13.1584 6.38329 13.4334 6.59996C13.7167 6.80829 13.7584 7.19996 13.5501 7.46663Z" fill="#8E98A8"/>
</svg>
