<svg width="30" height="30" viewBox="0 0 30 30" fill="none" xmlns="http://www.w3.org/2000/svg">
<path opacity="0.34" d="M10.334 13.6668H11.6673C13.0007 13.6668 13.6673 13.0002 13.6673 11.6668V10.3335C13.6673 9.00016 13.0007 8.3335 11.6673 8.3335H10.334C9.00065 8.3335 8.33398 9.00016 8.33398 10.3335V11.6668C8.33398 13.0002 9.00065 13.6668 10.334 13.6668Z" stroke="#292D32" stroke-miterlimit="10" stroke-linecap="round" stroke-linejoin="round"/>
<path d="M18.334 13.6668H19.6673C21.0007 13.6668 21.6673 13.0002 21.6673 11.6668V10.3335C21.6673 9.00016 21.0007 8.3335 19.6673 8.3335H18.334C17.0007 8.3335 16.334 9.00016 16.334 10.3335V11.6668C16.334 13.0002 17.0007 13.6668 18.334 13.6668Z" stroke="#292D32" stroke-miterlimit="10" stroke-linecap="round" stroke-linejoin="round"/>
<path opacity="0.34" d="M18.334 21.6668H19.6673C21.0007 21.6668 21.6673 21.0002 21.6673 19.6668V18.3335C21.6673 17.0002 21.0007 16.3335 19.6673 16.3335H18.334C17.0007 16.3335 16.334 17.0002 16.334 18.3335V19.6668C16.334 21.0002 17.0007 21.6668 18.334 21.6668Z" stroke="#292D32" stroke-miterlimit="10" stroke-linecap="round" stroke-linejoin="round"/>
<path d="M10.334 21.6668H11.6673C13.0007 21.6668 13.6673 21.0002 13.6673 19.6668V18.3335C13.6673 17.0002 13.0007 16.3335 11.6673 16.3335H10.334C9.00065 16.3335 8.33398 17.0002 8.33398 18.3335V19.6668C8.33398 21.0002 9.00065 21.6668 10.334 21.6668Z" stroke="#292D32" stroke-miterlimit="10" stroke-linecap="round" stroke-linejoin="round"/>
</svg>
