<svg width="20" height="20" viewBox="0 0 20 20" fill="none" xmlns="http://www.w3.org/2000/svg">
<path d="M11.9333 15.8917C11.9333 16.4 11.6 17.0667 11.175 17.325L10 18.0834C8.90833 18.7584 7.39166 18 7.39166 16.65V12.1917C7.39166 11.6 7.05833 10.8417 6.71666 10.425L3.51664 7.05834C3.09164 6.63334 2.75833 5.88335 2.75833 5.37502V3.44168C2.75833 2.43335 3.51668 1.67502 4.44168 1.67502H15.5583C16.4833 1.67502 17.2417 2.43334 17.2417 3.35834V5.20834C17.2417 5.88334 16.8167 6.72502 16.4 7.14168" stroke="#8E98A8" stroke-width="1.25" stroke-miterlimit="10" stroke-linecap="round" stroke-linejoin="round"/>
<path d="M13.3917 13.7666C14.8644 13.7666 16.0584 12.5728 16.0584 11.1C16.0584 9.62724 14.8644 8.43332 13.3917 8.43332C11.9189 8.43332 10.725 9.62724 10.725 11.1C10.725 12.5728 11.9189 13.7666 13.3917 13.7666Z" stroke="#8E98A8" stroke-width="1.25" stroke-linecap="round" stroke-linejoin="round"/>
<path d="M16.5583 14.2667L15.725 13.4333" stroke="#8E98A8" stroke-width="1.25" stroke-linecap="round" stroke-linejoin="round"/>
</svg>
