<svg width="24" height="25" viewBox="0 0 24 25" fill="none" xmlns="http://www.w3.org/2000/svg">
<rect y="0.5" width="24" height="24" rx="2.66667" fill="#F6F8FB"/>
<path d="M19.625 10.3102H18.9985V10.2779H11.9985V13.389H16.3941C15.7528 15.2001 14.0296 16.5001 11.9985 16.5001C9.42131 16.5001 7.33181 14.4106 7.33181 11.8334C7.33181 9.25628 9.42131 7.16678 11.9985 7.16678C13.1881 7.16678 14.2704 7.61555 15.0944 8.34861L17.2944 6.14866C15.9053 4.85405 14.0471 4.05566 11.9985 4.05566C7.7032 4.05566 4.2207 7.53816 4.2207 11.8334C4.2207 16.1287 7.7032 19.6112 11.9985 19.6112C16.2938 19.6112 19.7763 16.1287 19.7763 11.8334C19.7763 11.3119 19.7226 10.8029 19.625 10.3102Z" fill="#FFC107"/>
<path d="M5.11719 8.21328L7.67258 10.0873C8.36402 8.37544 10.0386 7.16678 11.9982 7.16678C13.1878 7.16678 14.2701 7.61555 15.0941 8.34861L17.2941 6.14866C15.905 4.85405 14.0469 4.05566 11.9982 4.05566C9.01074 4.05566 6.41997 5.74228 5.11719 8.21328Z" fill="#FF3D00"/>
<path d="M12.0003 19.6111C14.0093 19.6111 15.8348 18.8423 17.215 17.592L14.8077 15.555C14.0006 16.1688 13.0143 16.5008 12.0003 16.5C9.97734 16.5 8.25962 15.2101 7.61251 13.4099L5.07617 15.3641C6.36339 17.8829 8.97751 19.6111 12.0003 19.6111Z" fill="#4CAF50"/>
<path d="M19.6245 10.3099H18.998V10.2776H11.998V13.3887H16.3937C16.0869 14.2506 15.5344 15.0038 14.8043 15.5552L14.8054 15.5544L17.2127 17.5914C17.0423 17.7462 19.7758 15.722 19.7758 11.8331C19.7758 11.3116 19.7222 10.8026 19.6245 10.3099Z" fill="#1976D2"/>
</svg>
