<svg width="20" height="21" viewBox="0 0 20 21" fill="none" xmlns="http://www.w3.org/2000/svg">
<path d="M18.1706 8.86788H17.4993V8.83329H9.99935V12.1666H14.7089C14.0218 14.107 12.1756 15.5 9.99935 15.5C7.2381 15.5 4.99935 13.2612 4.99935 10.5C4.99935 7.73871 7.2381 5.49996 9.99935 5.49996C11.2739 5.49996 12.4335 5.98079 13.3164 6.76621L15.6735 4.40913C14.1852 3.02204 12.1943 2.16663 9.99935 2.16663C5.39727 2.16663 1.66602 5.89788 1.66602 10.5C1.66602 15.102 5.39727 18.8333 9.99935 18.8333C14.6014 18.8333 18.3327 15.102 18.3327 10.5C18.3327 9.94121 18.2752 9.39579 18.1706 8.86788Z" fill="#FFC107"/>
<path d="M2.62695 6.62121L5.36487 8.62913C6.1057 6.79496 7.89987 5.49996 9.99945 5.49996C11.274 5.49996 12.4336 5.98079 13.3165 6.76621L15.6736 4.40913C14.1853 3.02204 12.1945 2.16663 9.99945 2.16663C6.79862 2.16663 4.02279 3.97371 2.62695 6.62121Z" fill="#FF3D00"/>
<path d="M10.0008 18.8334C12.1533 18.8334 14.1091 18.0096 15.5879 16.67L13.0087 14.4875C12.1439 15.1452 11.0872 15.5009 10.0008 15.5C7.83328 15.5 5.99286 14.118 5.29953 12.1892L2.58203 14.283C3.9612 16.9817 6.76203 18.8334 10.0008 18.8334Z" fill="#4CAF50"/>
<path d="M18.1712 8.86796H17.5V8.83337H10V12.1667H14.7096C14.3809 13.0902 13.7889 13.8972 13.0067 14.488L13.0079 14.4871L15.5871 16.6696C15.4046 16.8355 18.3333 14.6667 18.3333 10.5C18.3333 9.94129 18.2758 9.39587 18.1712 8.86796Z" fill="#1976D2"/>
</svg>
