<svg width="20" height="20" viewBox="0 0 20 20" fill="none" xmlns="http://www.w3.org/2000/svg">
<path d="M12.9173 13.3334C12.4959 13.743 10.834 14.8332 10.834 15.4167M10.834 15.4167C10.834 16.0002 12.4959 17.0905 12.9173 17.5M10.834 15.4167H17.5007" stroke="#011C39" stroke-width="1.25" stroke-linecap="round" stroke-linejoin="round"/>
<path d="M9.16667 18.3333H8.93942C6.22172 18.3333 4.86288 18.3333 3.91923 17.6685C3.64885 17.478 3.40882 17.252 3.20642 16.9975C2.5 16.1094 2.5 14.8305 2.5 12.2727V10.1515C2.5 7.68217 2.5 6.44751 2.89078 5.46142C3.51901 3.87614 4.84762 2.62569 6.53197 2.03442C7.57969 1.66663 8.8915 1.66663 11.5152 1.66663C13.0144 1.66663 13.764 1.66663 14.3627 1.87679C15.3252 2.21467 16.0843 2.92921 16.4433 3.83508C16.6667 4.39856 16.6667 5.10408 16.6667 6.51511V10.8333" stroke="#011C39" stroke-width="1.25" stroke-linecap="round" stroke-linejoin="round"/>
<path d="M2.5 9.99996C2.5 8.46588 3.74365 7.22218 5.27778 7.22218C5.8326 7.22218 6.4867 7.3194 7.02614 7.17486C7.50543 7.04643 7.8798 6.67206 8.00823 6.19276C8.15278 5.65333 8.05556 4.99923 8.05556 4.4444C8.05556 2.91028 9.29925 1.66663 10.8333 1.66663" stroke="#011C39" stroke-width="1.25" stroke-linecap="round" stroke-linejoin="round"/>
</svg>
