<svg xmlns="http://www.w3.org/2000/svg" width="20" height="21" viewBox="0 0 20 21" fill="none"><path d="M10.0029 6.23535C7.51855 6.23535 5.51465 8.23926 5.51465 10.7236C5.51465 13.208 7.51855 15.2119 10.0029 15.2119C12.4873 15.2119 14.4912 13.208 14.4912 10.7236C14.4912 8.23926 12.4873 6.23535 10.0029 6.23535ZM10.0029 13.6416C8.39746 13.6416 7.08496 12.333 7.08496 10.7236C7.08496 9.11426 8.39355 7.80566 10.0029 7.80566C11.6123 7.80566 12.9209 9.11426 12.9209 10.7236C12.9209 12.333 11.6084 13.6416 10.0029 13.6416ZM15.7217 6.05176C15.7217 6.63379 15.2529 7.09863 14.6748 7.09863C14.0928 7.09863 13.6279 6.62988 13.6279 6.05176C13.6279 5.47363 14.0967 5.00488 14.6748 5.00488C15.2529 5.00488 15.7217 5.47363 15.7217 6.05176ZM18.6943 7.11426C18.6279 5.71191 18.3076 4.46973 17.2803 3.44629C16.2568 2.42285 15.0146 2.10254 13.6123 2.03223C12.167 1.9502 7.83496 1.9502 6.38965 2.03223C4.99121 2.09863 3.74902 2.41895 2.72168 3.44238C1.69434 4.46582 1.37793 5.70801 1.30762 7.11035C1.22559 8.55566 1.22559 12.8877 1.30762 14.333C1.37402 15.7354 1.69434 16.9775 2.72168 18.001C3.74902 19.0244 4.9873 19.3447 6.38965 19.415C7.83496 19.4971 12.167 19.4971 13.6123 19.415C15.0146 19.3486 16.2568 19.0283 17.2803 18.001C18.3037 16.9775 18.624 15.7354 18.6943 14.333C18.7764 12.8877 18.7764 8.55957 18.6943 7.11426ZM16.8271 15.8838C16.5225 16.6494 15.9326 17.2393 15.1631 17.5479C14.0107 18.0049 11.2764 17.8994 10.0029 17.8994C8.72949 17.8994 5.99121 18.001 4.84277 17.5479C4.07715 17.2432 3.4873 16.6533 3.17871 15.8838C2.72168 14.7314 2.82715 11.9971 2.82715 10.7236C2.82715 9.4502 2.72559 6.71191 3.17871 5.56348C3.4834 4.79785 4.07324 4.20801 4.84277 3.89941C5.99512 3.44238 8.72949 3.54785 10.0029 3.54785C11.2764 3.54785 14.0146 3.44629 15.1631 3.89941C15.9287 4.2041 16.5186 4.79395 16.8271 5.56348C17.2842 6.71582 17.1787 9.4502 17.1787 10.7236C17.1787 11.9971 17.2842 14.7354 16.8271 15.8838Z" fill="#011C39"/></svg>