<svg xmlns="http://www.w3.org/2000/svg" width="20" height="21" viewBox="0 0 20 21" fill="none"><path d="M5.16719 18.2281H1.53906V6.54453H5.16719V18.2281ZM3.35117 4.95078C2.19102 4.95078 1.25 3.98984 1.25 2.82969C1.25 2.27242 1.47137 1.73798 1.86542 1.34393C2.25947 0.949888 2.79391 0.728516 3.35117 0.728516C3.90844 0.728516 4.44288 0.949888 4.83692 1.34393C5.23097 1.73798 5.45234 2.27242 5.45234 2.82969C5.45234 3.98984 4.51094 4.95078 3.35117 4.95078ZM18.7461 18.2281H15.1258V12.5406C15.1258 11.1852 15.0984 9.44687 13.2395 9.44687C11.3531 9.44687 11.0641 10.9195 11.0641 12.443V18.2281H7.43984V6.54453H10.9195V8.13828H10.9703C11.4547 7.22031 12.6379 6.25156 14.4031 6.25156C18.075 6.25156 18.75 8.66953 18.75 11.8102V18.2281H18.7461Z" fill="#011C39"/></svg>