<svg xmlns="http://www.w3.org/2000/svg" width="25" height="25" viewBox="0 0 25 25" fill="none">
<path d="M21.3125 4.25V8C21.3125 8.14918 21.2532 8.29226 21.1477 8.39775C21.0423 8.50324 20.8992 8.5625 20.75 8.5625C20.6008 8.5625 20.4577 8.50324 20.3523 8.39775C20.2468 8.29226 20.1875 8.14918 20.1875 8V4.8125H17C16.8508 4.8125 16.7077 4.75324 16.6023 4.64775C16.4968 4.54226 16.4375 4.39918 16.4375 4.25C16.4375 4.10082 16.4968 3.95774 16.6023 3.85225C16.7077 3.74676 16.8508 3.6875 17 3.6875H20.75C20.8992 3.6875 21.0423 3.74676 21.1477 3.85225C21.2532 3.95774 21.3125 4.10082 21.3125 4.25ZM8 20.1875H4.8125V17C4.8125 16.8508 4.75324 16.7077 4.64775 16.6023C4.54226 16.4968 4.39918 16.4375 4.25 16.4375C4.10082 16.4375 3.95774 16.4968 3.85225 16.6023C3.74676 16.7077 3.6875 16.8508 3.6875 17V20.75C3.6875 20.8992 3.74676 21.0423 3.85225 21.1477C3.95774 21.2532 4.10082 21.3125 4.25 21.3125H8C8.14918 21.3125 8.29226 21.2532 8.39775 21.1477C8.50324 21.0423 8.5625 20.8992 8.5625 20.75C8.5625 20.6008 8.50324 20.4577 8.39775 20.3523C8.29226 20.2468 8.14918 20.1875 8 20.1875ZM20.75 16.4375C20.6008 16.4375 20.4577 16.4968 20.3523 16.6023C20.2468 16.7077 20.1875 16.8508 20.1875 17V20.1875H17C16.8508 20.1875 16.7077 20.2468 16.6023 20.3523C16.4968 20.4577 16.4375 20.6008 16.4375 20.75C16.4375 20.8992 16.4968 21.0423 16.6023 21.1477C16.7077 21.2532 16.8508 21.3125 17 21.3125H20.75C20.8992 21.3125 21.0423 21.2532 21.1477 21.1477C21.2532 21.0423 21.3125 20.8992 21.3125 20.75V17C21.3125 16.8508 21.2532 16.7077 21.1477 16.6023C21.0423 16.4968 20.8992 16.4375 20.75 16.4375ZM4.25 8.5625C4.39918 8.5625 4.54226 8.50324 4.64775 8.39775C4.75324 8.29226 4.8125 8.14918 4.8125 8V4.8125H8C8.14918 4.8125 8.29226 4.75324 8.39775 4.64775C8.50324 4.54226 8.5625 4.39918 8.5625 4.25C8.5625 4.10082 8.50324 3.95774 8.39775 3.85225C8.29226 3.74676 8.14918 3.6875 8 3.6875H4.25C4.10082 3.6875 3.95774 3.74676 3.85225 3.85225C3.74676 3.95774 3.6875 4.10082 3.6875 4.25V8C3.6875 8.14918 3.74676 8.29226 3.85225 8.39775C3.95774 8.50324 4.10082 8.5625 4.25 8.5625ZM16.25 17.5625H8.75C8.4019 17.5625 8.06806 17.4242 7.82192 17.1781C7.57578 16.9319 7.4375 16.5981 7.4375 16.25V8.75C7.4375 8.4019 7.57578 8.06806 7.82192 7.82192C8.06806 7.57578 8.4019 7.4375 8.75 7.4375H16.25C16.5981 7.4375 16.9319 7.57578 17.1781 7.82192C17.4242 8.06806 17.5625 8.4019 17.5625 8.75V16.25C17.5625 16.5981 17.4242 16.9319 17.1781 17.1781C16.9319 17.4242 16.5981 17.5625 16.25 17.5625ZM16.4375 8.75C16.4375 8.70027 16.4177 8.65258 16.3826 8.61742C16.3474 8.58225 16.2997 8.5625 16.25 8.5625H8.75C8.70027 8.5625 8.65258 8.58225 8.61742 8.61742C8.58225 8.65258 8.5625 8.70027 8.5625 8.75V16.25C8.5625 16.2997 8.58225 16.3474 8.61742 16.3826C8.65258 16.4177 8.70027 16.4375 8.75 16.4375H16.25C16.2997 16.4375 16.3474 16.4177 16.3826 16.3826C16.4177 16.3474 16.4375 16.2997 16.4375 16.25V8.75Z" fill="currentColor"/>
</svg>