<svg width="30" height="30" viewBox="0 0 30 30" fill="none" xmlns="http://www.w3.org/2000/svg">
<rect width="30" height="30" rx="8" fill="#E6E8EB"/>
<path opacity="0.34" d="M15 17C16.1046 17 17 16.1046 17 15C17 13.8954 16.1046 13 15 13C13.8954 13 13 13.8954 13 15C13 16.1046 13.8954 17 15 17Z" stroke="#292D32" stroke-miterlimit="10" stroke-linecap="round" stroke-linejoin="round"/>
<path d="M8.33398 15.5868V14.4135C8.33398 13.7201 8.90065 13.1468 9.60065 13.1468C10.8073 13.1468 11.3007 12.2935 10.694 11.2468C10.3473 10.6468 10.554 9.86679 11.1607 9.52012L12.314 8.86012C12.8407 8.54679 13.5207 8.73345 13.834 9.26012L13.9073 9.38679C14.5073 10.4335 15.494 10.4335 16.1007 9.38679L16.174 9.26012C16.4873 8.73345 17.1673 8.54679 17.694 8.86012L18.8473 9.52012C19.454 9.86679 19.6607 10.6468 19.314 11.2468C18.7073 12.2935 19.2007 13.1468 20.4073 13.1468C21.1007 13.1468 21.674 13.7135 21.674 14.4135V15.5868C21.674 16.2801 21.1073 16.8535 20.4073 16.8535C19.2007 16.8535 18.7073 17.7068 19.314 18.7535C19.6607 19.3601 19.454 20.1335 18.8473 20.4801L17.694 21.1401C17.1673 21.4535 16.4873 21.2668 16.174 20.7401L16.1007 20.6135C15.5007 19.5668 14.514 19.5668 13.9073 20.6135L13.834 20.7401C13.5207 21.2668 12.8407 21.4535 12.314 21.1401L11.1607 20.4801C10.554 20.1335 10.3473 19.3535 10.694 18.7535C11.3007 17.7068 10.8073 16.8535 9.60065 16.8535C8.90065 16.8535 8.33398 16.2801 8.33398 15.5868Z" stroke="#292D32" stroke-miterlimit="10" stroke-linecap="round" stroke-linejoin="round"/>
</svg>
