<svg width="20" height="20" viewBox="0 0 20 20" fill="none" xmlns="http://www.w3.org/2000/svg">
<path d="M15.9326 12.45L16.1993 12.9916C16.3326 13.2583 16.6743 13.5083 16.9576 13.5583L17.3159 13.6166C18.4076 13.8 18.6576 14.6 17.8826 15.3833L17.5493 15.7166C17.3243 15.9416 17.2076 16.375 17.2743 16.6916L17.3159 16.8916C17.6159 18.2083 16.9159 18.7166 15.7743 18.025L15.5326 17.875C15.2409 17.7 14.7576 17.7 14.4659 17.875L14.2243 18.025C13.0743 18.7166 12.3826 18.2083 12.6826 16.8916L12.7243 16.6916C12.7909 16.3833 12.6743 15.9416 12.4493 15.7166L12.1159 15.3833C11.3409 14.5916 11.5909 13.8 12.6826 13.6166L13.0409 13.5583C13.3326 13.5083 13.6659 13.2583 13.7993 12.9916L14.0659 12.45C14.5826 11.4083 15.4159 11.4083 15.9326 12.45Z" fill="currentColor"/>
<path d="M13.491 1.66675H6.50768C3.47435 1.66675 1.66602 3.47508 1.66602 6.50841V13.4917C1.66602 16.5251 3.47435 18.3334 6.50768 18.3334H10.9077C11.1993 18.3334 11.4077 18.0334 11.3743 17.7417C11.341 17.4251 11.3577 17.0501 11.4577 16.6167C11.4743 16.5584 11.4577 16.4917 11.4077 16.4417L11.2243 16.2584C10.516 15.5417 10.2577 14.6751 10.5077 13.8834C10.766 13.1001 11.4827 12.5501 12.4743 12.3834L12.7243 12.3417L12.9493 11.8917C13.4077 10.9584 14.1577 10.4167 14.9993 10.4167C15.841 10.4167 16.591 10.9584 17.0493 11.8917L17.1743 12.1501C17.2327 12.2751 17.3493 12.3584 17.4827 12.3834C17.5577 12.4001 17.6327 12.4167 17.7077 12.4334C17.9993 12.5084 18.3327 12.2751 18.3327 11.9667V6.50841C18.3327 3.47508 16.5244 1.66675 13.491 1.66675ZM13.5493 7.46675L11.6243 9.95008C11.3827 10.2584 11.041 10.4584 10.6493 10.5001C10.266 10.5501 9.87435 10.4417 9.57435 10.2001L8.04935 9.01675C7.99102 8.96675 7.92435 8.96675 7.89102 8.97508C7.85768 8.97508 7.79935 8.99175 7.74935 9.05841L5.76602 11.6334C5.64102 11.7917 5.45768 11.8751 5.26602 11.8751C5.13268 11.8751 4.99935 11.8334 4.88268 11.7417C4.60768 11.5334 4.55768 11.1417 4.76602 10.8667L6.74935 8.29175C6.99102 7.98341 7.33268 7.78341 7.72435 7.73341C8.11602 7.68341 8.49935 7.79175 8.80768 8.03342L10.3327 9.23342C10.391 9.28341 10.4493 9.27508 10.491 9.27508C10.5243 9.27508 10.5827 9.25841 10.6327 9.19175L12.5577 6.70842C12.766 6.43341 13.1577 6.38342 13.4327 6.60008C13.716 6.80841 13.7577 7.20008 13.5493 7.46675Z" fill="#2E2E2E"/>
</svg>
