<svg width="24" height="22" viewBox="0 0 24 22" fill="none" xmlns="http://www.w3.org/2000/svg">
<path d="M11.9685 0.297605L15.2511 6.95491L22.5936 8.01371C22.6868 8.02741 22.7742 8.0668 22.8461 8.12744C22.918 8.18809 22.9715 8.26757 23.0005 8.35695C23.0295 8.44633 23.0328 8.54205 23.0103 8.63334C22.9877 8.72463 22.94 8.80785 22.8726 8.87364L17.5586 14.0649L18.8106 21.3849C18.8267 21.4775 18.8165 21.5727 18.7812 21.6598C18.7458 21.747 18.6867 21.8225 18.6106 21.8779C18.5344 21.9333 18.4443 21.9664 18.3504 21.9733C18.2564 21.9802 18.1625 21.9608 18.0792 21.9171L11.5122 18.4697L4.9431 21.9355C4.8598 21.9795 4.76584 21.9994 4.67188 21.9928C4.57793 21.9862 4.48775 21.9535 4.4116 21.8983C4.33545 21.8431 4.27638 21.7677 4.2411 21.6806C4.20582 21.5935 4.19575 21.4983 4.21204 21.4057L5.46862 14.0808L0.156495 8.90363C0.0891395 8.83802 0.0415145 8.75492 0.0189831 8.66369C-0.00354834 8.57247 -9.11558e-05 8.47674 0.0289653 8.38728C0.0580218 8.29783 0.111523 8.2182 0.183445 8.15737C0.255367 8.09653 0.342852 8.05691 0.436047 8.04297L7.77919 6.96477L11.0676 0.298795C11.1086 0.214324 11.1726 0.143046 11.2523 0.0931262C11.332 0.0432067 11.4241 0.0166647 11.5181 0.0165406C11.6121 0.0164164 11.7043 0.0427152 11.7839 0.0924243C11.8636 0.142133 11.9275 0.213242 11.9685 0.297605Z" fill="#FDE047"/>
</svg>
