<svg xmlns="http://www.w3.org/2000/svg" width="20" height="21" viewBox="0 0 20 21" fill="none"><path d="M17.9441 6.65367C17.9568 6.83133 17.9568 7.00902 17.9568 7.18668C17.9568 12.6054 13.8325 18.8491 6.29441 18.8491C3.97207 18.8491 1.81473 18.1765 0 17.009C0.329961 17.0471 0.647187 17.0598 0.989844 17.0598C2.90605 17.0598 4.67004 16.4126 6.07867 15.3085C4.27664 15.2704 2.76648 14.0902 2.24617 12.4659C2.5 12.5039 2.75379 12.5293 3.02031 12.5293C3.38832 12.5293 3.75637 12.4785 4.09898 12.3897C2.22082 12.009 0.812148 10.3593 0.812148 8.36688V8.31613C1.35781 8.6207 1.99238 8.81105 2.66492 8.83641C1.56086 8.10035 0.837539 6.84402 0.837539 5.4227C0.837539 4.66129 1.04055 3.96332 1.3959 3.35418C3.41367 5.84148 6.44668 7.46582 9.84766 7.64352C9.78422 7.33895 9.74613 7.02172 9.74613 6.70445C9.74613 4.44555 11.5736 2.60547 13.8451 2.60547C15.0253 2.60547 16.0913 3.10039 16.84 3.89988C17.7664 3.72223 18.6547 3.37957 19.4416 2.91004C19.137 3.86184 18.4898 4.66133 17.6395 5.16891C18.4644 5.08012 19.2639 4.85164 19.9999 4.53441C19.4416 5.34656 18.7436 6.06988 17.9441 6.65367Z" fill="#011C39"/></svg>