<svg width="30" height="30" viewBox="0 0 30 30" fill="none" xmlns="http://www.w3.org/2000/svg">
<path d="M13.1077 14.7468C13.0877 14.7468 13.0743 14.7468 13.0543 14.7468C13.021 14.7402 12.9743 14.7402 12.9343 14.7468C11.001 14.6868 9.54102 13.1668 9.54102 11.2935C9.54102 9.38683 11.0943 7.8335 13.001 7.8335C14.9077 7.8335 16.461 9.38683 16.461 11.2935C16.4543 13.1668 14.9877 14.6868 13.1277 14.7468C13.121 14.7468 13.1143 14.7468 13.1077 14.7468ZM13.001 8.8335C11.6477 8.8335 10.541 9.94016 10.541 11.2935C10.541 12.6268 11.581 13.7002 12.9077 13.7468C12.9477 13.7402 13.0343 13.7402 13.121 13.7468C14.4277 13.6868 15.4543 12.6135 15.461 11.2935C15.461 9.94016 14.3543 8.8335 13.001 8.8335Z" fill="#292D32"/>
<path d="M18.0276 14.8332C18.0076 14.8332 17.9876 14.8332 17.9676 14.8265C17.6942 14.8532 17.4142 14.6598 17.3876 14.3865C17.3609 14.1132 17.5276 13.8665 17.8009 13.8332C17.8809 13.8265 17.9676 13.8265 18.0409 13.8265C19.0142 13.7732 19.7742 12.9732 19.7742 11.9932C19.7742 10.9798 18.9542 10.1598 17.9409 10.1598C17.6676 10.1665 17.4409 9.93984 17.4409 9.6665C17.4409 9.39317 17.6676 9.1665 17.9409 9.1665C19.5009 9.1665 20.7742 10.4398 20.7742 11.9998C20.7742 13.5332 19.5742 14.7732 18.0476 14.8332C18.0409 14.8332 18.0342 14.8332 18.0276 14.8332Z" fill="#292D32"/>
<path d="M13.1131 22.0332C11.8064 22.0332 10.4931 21.6998 9.49974 21.0332C8.57307 20.4198 8.06641 19.5798 8.06641 18.6665C8.06641 17.7532 8.57307 16.9065 9.49974 16.2865C11.4997 14.9598 14.7397 14.9598 16.7264 16.2865C17.6464 16.8998 18.1597 17.7398 18.1597 18.6532C18.1597 19.5665 17.6531 20.4132 16.7264 21.0332C15.7264 21.6998 14.4197 22.0332 13.1131 22.0332ZM10.0531 17.1265C9.41307 17.5532 9.06641 18.0998 9.06641 18.6732C9.06641 19.2398 9.41974 19.7865 10.0531 20.2065C11.7131 21.3198 14.5131 21.3198 16.1731 20.2065C16.8131 19.7798 17.1597 19.2332 17.1597 18.6598C17.1597 18.0932 16.8064 17.5465 16.1731 17.1265C14.5131 16.0198 11.7131 16.0198 10.0531 17.1265Z" fill="#292D32"/>
<path d="M19.2268 20.8333C18.9934 20.8333 18.7868 20.6733 18.7401 20.4333C18.6868 20.16 18.8601 19.9 19.1268 19.84C19.5468 19.7533 19.9334 19.5867 20.2334 19.3533C20.6134 19.0667 20.8201 18.7067 20.8201 18.3267C20.8201 17.9467 20.6134 17.5867 20.2401 17.3067C19.9468 17.08 19.5801 16.92 19.1468 16.82C18.8801 16.76 18.7068 16.4933 18.7668 16.22C18.8268 15.9533 19.0934 15.78 19.3668 15.84C19.9401 15.9667 20.4401 16.1933 20.8468 16.5067C21.4668 16.9733 21.8201 17.6333 21.8201 18.3267C21.8201 19.02 21.4601 19.68 20.8401 20.1533C20.4268 20.4733 19.9068 20.7067 19.3334 20.82C19.2934 20.8333 19.2601 20.8333 19.2268 20.8333Z" fill="#292D32"/>
</svg>
